<svg width="755" height="128" viewBox="0 0 755 128" fill="none" xmlns="http://www.w3.org/2000/svg">
    <g clip-path="url(#clip0_34_109)">
        <path d="M8.736 86.152H0V74.896L17.136 27.94H28.644L45.78 74.812V86.152H37.044V75.82L34.944 70.108H10.836L8.736 75.82V86.152ZM22.848 35.668L12.936 62.716H32.844L22.848 35.668Z" fill="#9BD3ED"/>
        <path d="M55.3836 89.008H63.5316V95.896H82.3476V83.716H60.4236L54.6276 77.92V46.84L60.4236 41.044H78.3996L83.1036 45.748V41.044H90.8316V97.408L84.8676 103.204H61.2636L55.3836 97.408V89.008ZM63.0276 48.94V76.66H82.3476V52.552L78.3156 48.94H63.0276Z" fill="white"/>
        <path d="M129.57 79.096V70.948H137.802V80.272L131.922 86.152H108.822L103.026 80.272V46.84L108.822 41.044H131.922L137.802 46.84V65.236H111.258V79.096H129.57ZM129.57 48.184H111.258V60.196H129.57V48.184Z" fill="white"/>
        <path d="M158.024 86.152H149.624V41.044H157.184V45.748L161.888 41.044H179.864L185.744 46.84V86.152H177.26V48.94H162.056L158.024 52.552V86.152Z" fill="white"/>
        <path d="M220.614 86.152H205.578L199.698 80.272V48.016H193.482V41.044H199.698V31.888H208.098V41.044H219.69V48.016H208.098V78.256H220.614V86.152Z" fill="white"/>
        <path d="M237.684 32.896H228.948V25H237.684V32.896ZM237.516 86.152H229.116V41.044H237.516V86.152Z" fill="white"/>
        <path d="M276.068 78.424V69.604H284.216V80.272L278.42 86.152H255.74L249.944 80.272V46.84L255.74 41.044H278.42L284.216 46.84V57.508H276.068V48.688H258.176V78.424H276.068Z" fill="white"/>
        <path d="M350.074 86.152H314.206V27.94H349.654V35.836H322.942V53.392H345.034V60.448H322.942V78.172H350.074V86.152Z" fill="#D1AAE4"/>
        <path d="M368.024 86.152H359.624V41.044H367.184V45.748L371.888 41.044H389.864L395.744 46.84V86.152H387.26V48.94H372.056L368.024 52.552V86.152Z" fill="white"/>
        <path d="M408.774 89.008H416.922V95.896H435.738V83.716H413.814L408.018 77.92V46.84L413.814 41.044H431.79L436.494 45.748V41.044H444.222V97.408L438.258 103.204H414.654L408.774 97.408V89.008ZM416.418 48.94V76.66H435.738V52.552L431.706 48.94H416.418Z" fill="white"/>
        <path d="M465.321 32.896H456.585V25H465.321V32.896ZM465.153 86.152H456.753V41.044H465.153V86.152Z" fill="white"/>
        <path d="M486.149 86.152H477.749V41.044H485.309V45.748L490.013 41.044H507.989L513.869 46.84V86.152H505.385V48.94H490.181L486.149 52.552V86.152Z" fill="white"/>
        <path d="M552.687 79.096V70.948H560.919V80.272L555.039 86.152H531.939L526.143 80.272V46.84L531.939 41.044H555.039L560.919 46.84V65.236H534.375V79.096H552.687ZM552.687 48.184H534.375V60.196H552.687V48.184Z" fill="white"/>
        <path d="M599.117 79.096V70.948H607.349V80.272L601.469 86.152H578.369L572.573 80.272V46.84L578.369 41.044H601.469L607.349 46.84V65.236H580.805V79.096H599.117ZM599.117 48.184H580.805V60.196H599.117V48.184Z" fill="white"/>
        <path d="M627.571 86.152H619.171V41.044H626.731V46.756L632.527 41.044H642.943V49.108H632.359L627.571 53.644V86.152Z" fill="white"/>
        <path d="M658.422 32.896H649.686V25H658.422V32.896ZM658.254 86.152H649.854V41.044H658.254V86.152Z" fill="white"/>
        <path d="M679.25 86.152H670.85V41.044H678.41V45.748L683.114 41.044H701.09L706.97 46.84V86.152H698.486V48.94H683.282L679.25 52.552V86.152Z" fill="white"/>
        <path d="M720.001 89.008H728.149V95.896H746.965V83.716H725.041L719.245 77.92V46.84L725.041 41.044H743.017L747.721 45.748V41.044H755.449V97.408L749.485 103.204H725.881L720.001 97.408V89.008ZM727.645 48.94V76.66H746.965V52.552L742.933 48.94H727.645Z" fill="white"/>
    </g>
    <defs>
        <clipPath id="clip0_34_109">
            <rect width="755" height="128" fill="white"/>
        </clipPath>
    </defs>
</svg>
